HIERARCHY
ROOT Hips
{
 OFFSET 0.000000 0.000000 0.000000
 CHANNELS 6 Xposition Yposition Zposition Yrotation Xrotation Zrotation
 JOINT Chest
 {
  OFFSET 0.000000 9.588913 -0.003946
  CHANNELS 3 Yrotation Xrotation Zrotation
  JOINT Chest2
  {
   OFFSET 0.000000 9.541882 0.008053
   CHANNELS 3 Yrotation Xrotation Zrotation
   JOINT Chest3
   {
    OFFSET 0.000000 9.501360 0.000000
    CHANNELS 3 Yrotation Xrotation Zrotation
    JOINT Chest4
    {
     OFFSET 0.000000 9.491660 0.000000
     CHANNELS 3 Yrotation Xrotation Zrotation
     JOINT Neck
     {
      OFFSET 0.000000 14.331917 0.000000
      CHANNELS 3 Yrotation Xrotation Zrotation
      JOINT Head
      {
       OFFSET 0.000000 8.884799 0.017034
       CHANNELS 3 Yrotation Xrotation Zrotation
       End Site
       {
        OFFSET 0.000000 16.896195 0.008993
       }
      }
     }
     JOINT RightCollar
     {
      OFFSET -2.923010 9.499495 0.000000
      CHANNELS 3 Yrotation Xrotation Zrotation
      JOINT RightShoulder
      {
       OFFSET -13.795216 0.000000 0.000000
       CHANNELS 3 Yrotation Xrotation Zrotation
       JOINT RightElbow
       {
        OFFSET -30.272209 0.000000 0.000000
        CHANNELS 3 Yrotation Xrotation Zrotation
        JOINT RightWrist
        {
         OFFSET -24.478199 0.000000 0.000000
         CHANNELS 3 Yrotation Xrotation Zrotation
         End Site
         {
          OFFSET -18.090752 0.000000 0.000000
         }
        }
       }
      }
     }
     JOINT LeftCollar
     {
      OFFSET 2.923010 9.499495 0.000000
      CHANNELS 3 Yrotation Xrotation Zrotation
      JOINT LeftShoulder
      {
       OFFSET 13.795216 0.000000 0.000000
       CHANNELS 3 Yrotation Xrotation Zrotation
       JOINT LeftElbow
       {
        OFFSET 30.272209 0.000000 0.000000
        CHANNELS 3 Yrotation Xrotation Zrotation
        JOINT LeftWrist
        {
         OFFSET 24.478199 0.000000 0.000000
         CHANNELS 3 Yrotation Xrotation Zrotation
         End Site
         {
          OFFSET 18.090752 0.000000 0.000000
         }
        }
       }
      }
     }
    }
   }
  }
 }
 JOINT RightHip
 {
  OFFSET -7.826875 0.019532 0.001973
  CHANNELS 3 Yrotation Xrotation Zrotation
  JOINT RightKnee
  {
   OFFSET 0.000000 -40.546152 -0.001885
   CHANNELS 3 Yrotation Xrotation Zrotation
   JOINT RightAnkle
   {
    OFFSET 0.000000 -39.417092 -0.003189
    CHANNELS 3 Yrotation Xrotation Zrotation
    JOINT RightToe
    {
     OFFSET 0.000000 -7.579396 17.243563
     CHANNELS 3 Yrotation Xrotation Zrotation
     End Site
     {
      OFFSET 0.000000 -1.500329 6.694466
     }
    }
   }
  }
 }
 JOINT LeftHip
 {
  OFFSET 7.826875 0.019532 0.001973
  CHANNELS 3 Yrotation Xrotation Zrotation
  JOINT LeftKnee
  {
   OFFSET 0.000000 -40.546152 -0.001885
   CHANNELS 3 Yrotation Xrotation Zrotation
   JOINT LeftAnkle
   {
    OFFSET 0.000000 -39.417092 -0.003189
    CHANNELS 3 Yrotation Xrotation Zrotation
    JOINT LeftToe
    {
     OFFSET 0.000000 -7.579396 17.243563
     CHANNELS 3 Yrotation Xrotation Zrotation
     End Site
     {
      OFFSET 0.000000 -1.500329 6.694466
     }
    }
   }
  }
 }
}
MOTION
Frames: 16
Frame Time: 0.008333
0.000000 87.345680 0.000000 0.000000 -5.767889 0.000000 0.000000 11.653876 0.000000 0.000000 -5.885988 0.000000 0.000000 -0.000000 0.000000 0.000000 -0.000000 0.000000 0.000000 12.528808 0.000000 0.000000 0.711711 0.000000 0.000000 -0.000000 0.000000 0.000000 -0.000000 0.000000 2.309063 -0.000000 0.000000 -2.309063 -0.000000 -0.000000 0.000000 -0.000000 0.000000 0.000000 0.000000 0.000000 -2.309063 0.000000 0.000000 2.309063 -0.000000 0.000000 0.000000 8.520374 0.000000 0.000000 1.905768 0.000000 -0.000000 -4.658254 0.000000 0.000000 -0.000000 0.000000 0.000000 8.520374 0.000000 0.000000 1.905768 0.000000 -0.000000 -4.658254 0.000000 0.000000 -0.000000 0.000000
-3.222025 89.340566 13.013466 -53.312867 -8.574260 1.875595 3.922851 4.507911 0.884796 2.326143 2.685763 0.556424 2.912549 3.353490 0.712749 2.326143 2.685763 0.556424 0.692074 34.671411 -1.153205 1.038651 14.278545 -1.459659 -5.792557 -1.894275 -0.200520 0.478402 -5.334762 85.123333 5.668199 -9.856344 0.760396 1.280689 -2.373891 0.818755 -4.578525 0.378476 -3.206496 -1.500525 -6.312980 -90.126580 -1.587386 6.655027 -0.586636 -1.643034 4.961312 2.731003 -1.374820 9.258283 -3.358458 2.640446 1.014212 0.818535 11.376877 -2.210441 -2.166119 -0.027242 -0.120098 -0.014883 6.157328 3.515704 3.395105 11.279135 18.690715 5.004467 4.282841 -10.513337 -8.538721 -0.066245 -0.668210 0.662500
-3.270335 89.352335 13.048653 -53.265385 -8.559900 1.905311 3.918188 4.493650 0.843486 2.306309 2.651057 0.560026 2.887703 3.310120 0.716884 2.306310 2.651057 0.560026 0.830743 34.603379 -1.135571 1.191792 14.183183 -1.469983 -5.823118 -1.903683 -0.207611 0.403496 -5.323639 85.122964 5.891348 -9.963044 0.830902 1.364709 -2.416489 0.816715 -4.590728 0.352875 -3.213067 -1.557129 -6.277357 -90.093376 -1.585505 6.750774 -0.626714 -1.420480 5.113378 2.446255 -1.402862 9.319287 -3.366820 2.629698 0.960643 0.772452 11.347552 -2.227817 -2.159042 -0.020824 -0.122805 -0.008061 6.247326 3.742895 3.367408 11.252716 18.313259 4.828604 4.367726 -10.420100 -8.506152 -0.129307 -0.475138 0.591902
-3.334019 89.364197 13.076940 -53.207398 -8.538429 1.842620 3.914920 4.467909 0.888544 2.283155 2.614947 0.565156 2.858714 3.264992 0.722899 2.283156 2.614947 0.565156 0.979177 34.537363 -1.115519 1.355393 14.091231 -1.479779 -5.847906 -1.910768 -0.214620 0.346283 -5.298888 85.119079 6.100651 -10.055623 0.898992 1.454237 -2.458853 0.816646 -4.594249 0.327261 -3.222547 -1.621743 -6.246700 -90.061776 -1.572297 6.846707 -0.654874 -1.200030 5.260631 2.180518 -1.411439 9.379041 -3.264857 2.604042 0.911930 0.717760 11.317445 -2.241573 -2.159770 -0.019797 -0.135005 -0.003014 6.382093 3.972205 3.412716 11.266406 17.876748 4.678441 4.491947 -10.353488 -8.371539 -0.113882 -0.275200 0.450105
-3.397973 89.375029 13.104337 -53.114096 -8.478896 1.759826 3.883417 4.405510 0.941907 2.257636 2.577508 0.572266 2.826778 3.218194 0.731371 2.257637 2.577507 0.572266 1.134585 34.474182 -1.093665 1.526435 14.003844 -1.489136 -5.868096 -1.914720 -0.224123 0.303362 -5.263711 85.114428 6.294289 -10.130773 0.961695 1.546460 -2.493209 0.817665 -4.593440 0.299226 -3.237517 -1.693081 -6.215881 -90.032608 -1.548560 6.934016 -0.672240 -0.987258 5.393834 1.936993 -1.436267 9.397726 -3.145082 2.572267 0.870381 0.661414 11.294668 -2.243499 -2.162039 -0.019581 -0.163614 0.003284 6.538311 4.175874 3.462479 11.357679 17.378796 4.577444 4.580622 -10.275612 -8.248718 -0.050024 -0.096587 0.337094
-3.462098 89.385268 13.134819 -53.018455 -8.414179 1.674638 3.853431 4.343351 0.993861 2.231622 2.538962 0.581093 2.794231 3.170004 0.741983 2.231623 2.538961 0.581093 1.291999 34.413952 -1.069786 1.699249 13.921078 -1.496699 -5.887340 -1.916478 -0.235115 0.273676 -5.221075 85.109246 6.470922 -10.188911 1.017640 1.636630 -2.519109 0.816126 -4.594140 0.266717 -3.256370 -1.769320 -6.180050 -90.008485 -1.517135 7.005625 -0.679434 -0.788425 5.510094 1.715336 -1.454109 9.408932 -3.029860 2.536607 0.835330 0.612328 11.285892 -2.249801 -2.166650 -0.019041 -0.191935 0.010059 6.786835 4.388939 3.532232 11.556234 16.825371 4.502176 4.479720 -10.183850 -8.061734 0.013977 0.047832 0.215183
-3.521287 89.395034 13.171241 -52.923782 -8.347657 1.614270 3.824904 4.288069 1.018182 2.205508 2.499896 0.590837 2.761565 3.121160 0.753744 2.205509 2.499895 0.590837 1.450277 34.356612 -1.043182 1.872393 13.842800 -1.501419 -5.904928 -1.918131 -0.243745 0.254052 -5.173755 85.103791 6.626945 -10.226656 1.064141 1.720703 -2.541074 0.811205 -4.592730 0.230153 -3.274449 -1.848482 -6.139424 -89.993546 -1.479992 7.055853 -0.675347 -0.603403 5.613986 1.515362 -1.472166 9.416045 -2.949549 2.494624 0.803905 0.572887 11.282910 -2.265138 -2.168883 -0.017868 -0.213302 0.014027 7.147675 4.621424 3.608103 11.762891 16.219415 4.412943 4.164371 -10.072231 -7.743849 0.033441 0.154901 0.044277
-3.573305 89.404647 13.213321 -52.823566 -8.281851 1.581343 3.794297 4.239101 1.012149 2.178541 2.461302 0.600921 2.727833 3.072907 0.765932 2.178541 2.461302 0.600921 1.608720 34.302542 -1.012277 2.044742 13.769471 -1.501357 -5.919488 -1.916287 -0.247625 0.235583 -5.126235 85.098718 6.758399 -10.240212 1.100346 1.797637 -2.556732 0.803444 -4.589221 0.192405 -3.291440 -1.927256 -6.096718 -89.988009 -1.435452 7.083041 -0.660460 -0.430618 5.704529 1.338534 -1.490818 9.424451 -2.903455 2.452160 0.769530 0.537306 11.264715 -2.286007 -2.161044 -0.016524 -0.227773 0.012491 7.562000 4.866917 3.671751 11.825297 15.586716 4.297744 3.790807 -9.918365 -7.357943 0.013865 0.217262 -0.140074
-3.618643 89.414397 13.256872 -52.708831 -8.214539 1.552029 3.757316 4.188078 1.000079 2.150187 2.424270 0.610243 2.692364 3.026614 0.777174 2.150188 2.424270 0.610243 1.764809 34.251204 -0.975083 2.213003 13.700170 -1.493698 -5.931248 -1.907663 -0.243566 0.213685 -5.081679 85.093691 6.862499 -10.230952 1.128199 1.867292 -2.565963 0.791652 -4.587097 0.154124 -3.310040 -2.002645 -6.053187 -89.986695 -1.382884 7.089980 -0.638119 -0.271506 5.774339 1.185207 -1.505695 9.433314 -2.859454 2.416880 0.728368 0.496441 11.211390 -2.302401 -2.139286 -0.016259 -0.242046 0.005336 7.943896 5.096804 3.719444 11.718662 14.968340 4.181499 3.509003 -9.720496 -6.999195 -0.007108 0.241681 -0.286909
-3.656797 89.424557 13.298999 -52.571849 -8.139973 1.514386 3.708977 4.126923 0.996002 2.120778 2.389777 0.617453 2.655567 2.983510 0.785789 2.120779 2.389776 0.617453 1.914875 34.200109 -0.931550 2.372992 13.631187 -1.477562 -5.943976 -1.894940 -0.228831 0.190921 -5.040006 85.089130 6.935551 -10.207624 1.146423 1.928005 -2.575563 0.774878 -4.588006 0.113873 -3.333949 -2.073660 -6.009343 -89.983174 -1.324082 7.081576 -0.610642 -0.128488 5.821361 1.052736 -1.517828 9.435638 -2.798977 2.384536 0.681612 0.439738 11.124194 -2.310831 -2.102524 -0.017087 -0.259490 -0.004093 8.235749 5.284388 3.750244 11.528460 14.390902 4.088871 3.334578 -9.485409 -6.714903 -0.010817 0.236173 -0.372188
-3.687027 89.435483 13.339969 -52.415096 -8.059456 1.474991 3.651584 4.057735 0.997209 2.091350 2.357944 0.622088 2.618736 2.943746 0.791206 2.091351 2.357943 0.622087 2.054800 34.147685 -0.883444 2.520420 13.560136 -1.454035 -5.958097 -1.879427 -0.205166 0.164463 -5.000573 85.085484 6.973914 -10.181398 1.154644 1.982045 -2.589494 0.750123 -4.592657 0.072391 -3.365224 -2.140619 -5.966850 -89.977037 -1.259053 7.057066 -0.576797 -0.002124 5.855108 0.937396 -1.525364 9.432354 -2.729632 2.346740 0.628133 0.362589 11.027758 -2.312026 -2.050055 -0.017500 -0.278691 -0.011582 8.428422 5.425303 3.769240 11.302946 13.871396 4.007158 3.237123 -9.229171 -6.507734 -0.008226 0.207469 -0.395669
-3.706198 89.447039 13.381011 -52.241447 -7.963496 1.454081 3.584782 3.975744 0.985252 2.062401 2.327105 0.624348 2.582490 2.905239 0.793668 2.062402 2.327104 0.624348 2.180897 34.094724 -0.834152 2.651866 13.488045 -1.426135 -5.971300 -1.854844 -0.177244 0.130573 -4.968134 85.083155 6.973800 -10.159556 1.157241 2.033395 -2.605577 0.715604 -4.599703 0.034080 -3.404171 -2.201069 -5.929402 -89.970579 -1.188940 7.016913 -0.538345 0.109036 5.882051 0.837829 -1.536414 9.410660 -2.675211 2.297900 0.565327 0.269323 10.930904 -2.271267 -1.984319 -0.018028 -0.329038 -0.015997 8.524809 5.515867 3.770391 11.025425 13.421787 3.900786 3.229204 -8.980878 -6.364845 -0.004793 0.171078 -0.365630
-3.721062 89.459407 13.421318 -52.068969 -7.879353 1.428009 3.530974 3.911038 0.989679 2.033503 2.295594 0.624182 2.546291 2.865906 0.793098 2.033505 2.295593 0.624181 2.288768 34.042572 -0.785597 2.762784 13.416648 -1.395063 -5.988415 -1.813565 -0.150179 0.089452 -4.949520 85.090278 6.933046 -10.147107 1.150505 2.082983 -2.616690 0.676885 -4.609436 0.003942 -3.445979 -2.253259 -5.902268 -89.968838 -1.116310 6.968537 -0.498039 0.204179 5.900694 0.752760 -1.544052 9.405982 -2.611205 2.237901 0.493294 0.166194 10.838856 -2.257550 -1.913851 -0.019272 -0.347736 -0.018210 8.535114 5.585374 3.787650 10.706097 13.038906 3.755548 3.340373 -8.737008 -6.266350 -0.008661 0.123327 -0.305174
-3.729515 89.471660 13.461375 -51.891034 -7.795928 1.407764 3.482537 3.852877 0.997201 2.004604 2.263687 0.621374 2.510075 2.826091 0.789227 2.004605 2.263686 0.621374 2.378298 33.992283 -0.736924 2.852866 13.347350 -1.359821 -6.008950 -1.756209 -0.128753 0.040998 -4.942778 85.119549 6.853424 -10.146200 1.127246 2.130083 -2.623602 0.636853 -4.616081 -0.016657 -3.482080 -2.300348 -5.888019 -89.976943 -1.044011 6.918721 -0.458373 0.287605 5.911915 0.680358 -1.566021 9.403593 -2.557120 2.174989 0.410298 0.058628 10.764981 -2.238445 -1.837363 -0.020384 -0.363480 -0.018758 8.446651 5.634778 3.805375 10.403923 12.704045 3.583159 3.521336 -8.506889 -6.203757 -0.003303 0.077190 -0.225636
-3.732453 89.482799 13.501650 -51.713385 -7.715559 1.394899 3.437442 3.800637 1.004297 1.975658 2.232113 0.615846 2.473784 2.786708 0.781965 1.975659 2.232112 0.615846 2.453363 33.945619 -0.687645 2.926425 13.282740 -1.320718 -6.022080 -1.687838 -0.115284 -0.010317 -4.938059 85.176752 6.742386 -10.161418 1.083744 2.168391 -2.635160 0.597919 -4.607454 -0.029696 -3.507011 -2.340758 -5.882209 -89.995203 -0.977450 6.875720 -0.422582 0.364711 5.919016 0.620635 -1.597860 9.403059 -2.517204 2.115654 0.322773 -0.046636 10.704428 -2.219798 -1.760827 -0.020254 -0.373937 -0.016292 8.288458 5.678072 3.824382 10.174707 12.395334 3.398847 3.692869 -8.291731 -6.160217 0.007378 0.036478 -0.142717
-3.730967 89.491526 13.542459 -51.544226 -7.641171 1.389959 3.397491 3.754437 1.008519 1.948286 2.201722 0.607914 2.439452 2.748812 0.771716 1.948287 2.201721 0.607914 2.514091 33.903390 -0.638193 2.983721 13.223941 -1.278265 -6.026450 -1.615020 -0.108367 -0.059346 -4.923330 85.262741 6.608999 -10.198522 1.016376 2.191352 -2.650605 0.564997 -4.582590 -0.038126 -3.518023 -2.370752 -5.878214 -90.023414 -0.924139 6.844358 -0.390047 0.434861 5.927699 0.571424 -1.633838 9.402542 -2.489135 2.062008 0.242711 -0.145024 10.637860 -2.210259 -1.692035 -0.019704 -0.376602 -0.010742 8.117019 5.727567 3.847328 10.033172 12.094200 3.214831 3.793942 -8.091996 -6.118608 0.018248 0.003327 -0.069728
